<?xml version="1.0" encoding="utf-8"?>
<!-- Generator: Adobe Illustrator 16.0.0, SVG Export Plug-In . SVG Version: 6.00 Build 0)  -->
<!DOCTYPE svg PUBLIC "-//W3C//DTD SVG 1.1//EN" "http://www.w3.org/Graphics/SVG/1.1/DTD/svg11.dtd">
<svg version="1.1" id="Layer_1" xmlns="http://www.w3.org/2000/svg" xmlns:xlink="http://www.w3.org/1999/xlink" x="0px" y="0px"
	 width="390px" height="564px" viewBox="0 0 390 564" enable-background="new 0 0 390 564" xml:space="preserve">
<g>
	<circle fill="none" stroke="#FFFFFF" stroke-width="3" stroke-opacity="0.18" cx="194.019" cy="282.063" r="280.5"/>
	<circle fill="none" stroke="#FFFFFF" stroke-width="3" stroke-opacity="0.18" cx="194.019" cy="282.063" r="162.595"/>
	<circle fill="none" stroke="#FFFFFF" stroke-width="3" stroke-opacity="0.18" cx="194.019" cy="282.063" r="224.586"/>
</g>
<g opacity="0.15">
	<g>
		<path fill="#2697D5" d="M135.745,379.451c0,1.877-0.356,3.7-1.069,5.47c-0.653,1.604-1.502,2.945-2.547,4.026
			c-0.511,0.617-1.104,1.205-1.782,1.764c-0.819,0.653-1.657,1.193-2.512,1.621v0.107c0.392,0.213,0.915,0.469,1.568,0.766
			l1.71,0.766c0.879,0.356,1.876,0.725,2.993,1.104l0.338,0.143c0.095,0.036,0.208,0.071,0.338,0.107l0.677,0.214
			c-0.606,0.688-1.336,1.479-2.191,2.369h-0.071c-1.093-0.392-2.494-0.997-4.205-1.817c-0.618-0.285-1.366-0.671-2.245-1.157
			l-1.978-1.141c-0.333,0.095-0.855,0.202-1.568,0.32c-0.879,0.107-1.585,0.161-2.12,0.161c-4.05,0-7.471-1.432-10.262-4.294
			c-2.744-2.826-4.116-6.235-4.116-10.226c0-4.169,1.419-7.673,4.258-10.512c2.862-2.851,6.419-4.275,10.671-4.275
			c4.026,0,7.387,1.39,10.083,4.169c2.684,2.768,4.026,6.193,4.026,10.279V379.451z M132.128,379.559
			c0-3.254-1.027-5.98-3.082-8.178c-2.091-2.232-4.721-3.349-7.892-3.349c-3.077,0-5.666,1.134-7.768,3.402
			c-2.067,2.245-3.1,4.965-3.1,8.159c0,3.147,1.033,5.844,3.1,8.089c2.125,2.292,4.739,3.438,7.839,3.438
			c3.171,0,5.795-1.129,7.874-3.386c2.019-2.209,3.029-4.923,3.029-8.142V379.559z"/>
		<path fill="#2697D5" d="M140.074,365.413l0.82-0.054l0.819-0.054c0.974-0.059,1.799-0.089,2.476-0.089
			c2.019,0,3.747,0.256,5.185,0.767c0.487,0.166,0.968,0.397,1.443,0.694c0.594,0.381,1.116,0.826,1.568,1.336
			c0.546,0.618,0.968,1.313,1.265,2.085c0.344,0.902,0.517,1.895,0.517,2.975c0,1.758-0.446,3.296-1.336,4.614
			c-0.345,0.511-0.754,0.98-1.229,1.408c-0.369,0.332-0.766,0.635-1.194,0.908c-0.748,0.546-1.556,0.921-2.423,1.122v0.071
			l7.375,9.603c1.033,1.39,1.788,2.364,2.263,2.922v0.071h-4.08l-8.979-12.079h-1.211v12.079h-3.278V365.413z M150.728,373.287
			c0-3.385-1.972-5.077-5.915-5.077c-0.629,0-1.116,0.024-1.46,0.071v10.743c0.083,0.012,0.231,0.018,0.445,0.018l0.624,0.018
			c1.128,0,2.173-0.22,3.135-0.659c0.915-0.439,1.633-1.016,2.156-1.729c0.677-0.914,1.016-2.03,1.016-3.349V373.287z"/>
		<path fill="#116496" d="M176.471,368.281h-8.462v-2.939h20.327v2.939h-8.462v25.512h-3.402V368.281z"/>
		<path fill="#116496" d="M195.052,393.793h-3.385v-28.451h3.385V393.793z"/>
		<path fill="#116496" d="M199.399,379.416c0-4.395,1.479-7.928,4.436-10.601c2.887-2.589,6.616-3.884,11.188-3.884
			c0.57,0,1.122,0.019,1.656,0.054c0.393,0.024,0.796,0.054,1.212,0.089c0.974,0.131,1.793,0.279,2.458,0.445l-0.124,3.172h-0.107
			c-0.392-0.119-0.914-0.244-1.567-0.375c-0.974-0.189-2.103-0.284-3.385-0.284c-3.706,0-6.64,1.027-8.801,3.082
			c-2.186,2.066-3.278,4.869-3.278,8.408c0,3.421,1.104,6.212,3.313,8.374c2.186,2.126,4.971,3.188,8.355,3.188
			c1.378,0,2.595-0.106,3.652-0.32c0.249-0.048,0.522-0.119,0.819-0.214l0.819-0.268l0.143,3.1
			c-0.677,0.238-1.502,0.434-2.476,0.588c-1.129,0.154-2.257,0.232-3.385,0.232c-4.182,0-7.667-1.289-10.458-3.866
			c-2.981-2.731-4.472-6.36-4.472-10.886V379.416z"/>
		<path fill="#116496" d="M225.107,365.342h3.385v12.881l9.317-11.474l1.051-1.407h3.973v0.071l-2.565,3.171l-8.587,10.279
			l10.03,12.079l1.889,2.245c0.226,0.261,0.386,0.439,0.48,0.534v0.071h-4.311l-3.314-4.08l-7.963-9.566v13.646h-3.385V365.342z"/>
		<path fill="#116496" d="M246.771,365.342h12.88v2.975h-9.495v9.496h8.765v2.922h-8.765v10.03h9.888v3.028h-13.272V365.342z"/>
		<path fill="#116496" d="M270.482,368.281h-8.462v-2.939h20.327v2.939h-8.462v25.512h-3.403V368.281z"/>
	</g>
	<g>
		<linearGradient id="SVGID_1_" gradientUnits="userSpaceOnUse" x1="253.8857" y1="375.1943" x2="137.9722" y2="174.4261">
			<stop  offset="0" style="stop-color:#0E2F57"/>
			<stop  offset="1" style="stop-color:#2697D5"/>
		</linearGradient>
		<path fill="url(#SVGID_1_)" d="M232.138,278.107c4.607-8.29,7.235-17.831,7.235-27.992c0-15.938-6.456-30.354-16.9-40.8
			c-10.445-10.444-24.861-16.899-40.801-16.9c-15.939,0-30.354,6.456-40.8,16.9c-10.444,10.446-16.9,24.862-16.9,40.8
			c0,15.939,6.456,30.355,16.9,40.8c10.446,10.443,24.861,16.9,40.8,16.9c12.163,0,23.437-3.763,32.738-10.185l2.185,2.186
			c-9.88,6.953-21.923,11.038-34.922,11.038c-33.547-0.001-60.74-27.192-60.74-60.74c0-33.547,27.193-60.739,60.74-60.74
			c33.547,0,60.741,27.193,60.742,60.74c-0.001,11.003-2.926,21.324-8.042,30.225L232.138,278.107z M181.672,334.461
			c-23.296,0-44.374-9.438-59.643-24.704c-15.266-15.268-24.703-36.344-24.704-59.641c0.001-23.296,9.438-44.374,24.704-59.642
			c15.269-15.266,36.346-24.703,59.643-24.704c23.296,0.001,44.374,9.438,59.641,24.704c15.266,15.269,24.704,36.346,24.705,59.642
			c-0.001,17.708-5.459,34.132-14.78,47.7l2.184,2.185c9.854-14.146,15.636-31.339,15.636-49.884
			c-0.002-48.263-39.123-87.384-87.385-87.386c-48.263,0.002-87.385,39.123-87.386,87.386c0.001,48.263,39.123,87.384,87.386,87.385
			c20.208-0.001,38.814-6.862,53.616-18.382l-2.168-2.168C218.881,327.93,201.046,334.461,181.672,334.461z M184.873,247.309h-4.08
			l-0.115,0.115l106.598,106.002h4.311L184.873,247.309z"/>
		<linearGradient id="SVGID_2_" gradientUnits="userSpaceOnUse" x1="92.7666" y1="258.0781" x2="295.2705" y2="258.0781">
			<stop  offset="0" style="stop-color:#0E2F57"/>
			<stop  offset="1" style="stop-color:#2697D5"/>
		</linearGradient>
		<path fill="url(#SVGID_2_)" d="M295.271,354.946h-8.621L178.532,247.433l1.626-1.644h5.341L295.271,354.946z M181.672,339.021
			L181.672,339.021c-49.022-0.001-88.904-39.885-88.906-88.906c0.001-49.021,39.884-88.904,88.906-88.905
			c49.021,0.001,88.904,39.884,88.905,88.905c-0.001,18.262-5.501,35.813-15.908,50.752l-1.037,1.49l-4.363-4.362l0.716-1.042
			c9.495-13.817,14.514-30.015,14.515-46.838c-0.001-22.122-8.617-42.921-24.261-58.566c-15.646-15.644-36.444-24.259-58.566-24.26
			c-22.123,0-42.922,8.616-58.568,24.26c-15.642,15.644-24.258,36.444-24.258,58.566c0,22.122,8.616,42.921,24.26,58.567
			c15.645,15.644,36.444,24.259,58.567,24.26c18.461-0.001,35.931-5.946,50.52-17.194l1.058-0.815l4.33,4.329l-1.358,1.057
			C220.5,332.553,201.637,339.021,181.672,339.021z M232.983,318.963c-14.87,11.111-32.531,16.988-51.171,17.019
			c18.652-0.03,36.306-5.906,51.173-17.016L232.983,318.963z M253.199,297.628L253.199,297.628
			c9.382-14.089,14.333-30.467,14.339-47.486C267.532,267.149,262.579,283.54,253.199,297.628z M181.671,312.376L181.671,312.376
			c-34.33-0.002-62.259-27.932-62.26-62.26c0-34.329,27.93-62.259,62.26-62.26c34.33,0.001,62.26,27.931,62.261,62.26
			c0,10.886-2.852,21.599-8.244,30.983l-0.989,1.719l-4.447-4.446l0.557-1.002c4.607-8.289,7.045-17.714,7.045-27.253
			c0-15.004-5.844-29.113-16.455-39.726c-10.613-10.61-24.722-16.454-39.727-16.455c-15.005,0.001-29.113,5.844-39.726,16.455
			c-10.61,10.613-16.454,24.721-16.455,39.726c0,15.005,5.845,29.114,16.455,39.725c10.614,10.611,24.722,16.455,39.726,16.455
			c11.458,0,22.48-3.429,31.875-9.915l1.042-0.719l4.357,4.357l-1.478,1.039C206.952,308.462,194.573,312.374,181.671,312.376z
			 M214.222,299.593c-9.633,6.352-20.809,9.715-32.408,9.743C193.427,309.308,204.59,305.947,214.222,299.593L214.222,299.593z
			 M234.015,277.835l0.002,0.003c4.495-8.478,6.867-17.998,6.877-27.663C240.884,259.825,238.509,269.362,234.015,277.835z"/>
	</g>
</g>
</svg>
